<svg width="112" height="65" viewBox="0 0 112 65" fill="none" xmlns="http://www.w3.org/2000/svg">
<path d="M11.9954 48.48C9.33938 48.48 7.33938 47.728 5.99538 46.224C4.65138 44.688 3.97938 42.448 3.97938 39.504V16.8C3.97938 15.808 4.23538 15.056 4.74738 14.544C5.25938 14.032 5.99538 13.776 6.95538 13.776C7.91538 13.776 8.65138 14.032 9.16338 14.544C9.70738 15.056 9.97938 15.808 9.97938 16.8V39.216C9.97938 40.688 10.2834 41.776 10.8914 42.48C11.5314 43.184 12.4274 43.536 13.5794 43.536C13.8354 43.536 14.0754 43.536 14.2994 43.536C14.5234 43.504 14.7474 43.472 14.9714 43.44C15.4194 43.376 15.7234 43.504 15.8834 43.824C16.0434 44.112 16.1234 44.72 16.1234 45.648C16.1234 46.448 15.9634 47.072 15.6434 47.52C15.3234 47.968 14.7954 48.24 14.0594 48.336C13.7394 48.368 13.4034 48.4 13.0514 48.432C12.6994 48.464 12.3474 48.48 11.9954 48.48ZM22.2835 48.336C21.3235 48.336 20.5875 48.048 20.0755 47.472C19.5635 46.896 19.3075 46.096 19.3075 45.072V27.456C19.3075 26.4 19.5635 25.6 20.0755 25.056C20.5875 24.48 21.3235 24.192 22.2835 24.192C23.2435 24.192 23.9795 24.48 24.4915 25.056C25.0355 25.6 25.3075 26.4 25.3075 27.456V45.072C25.3075 46.096 25.0515 46.896 24.5395 47.472C24.0275 48.048 23.2755 48.336 22.2835 48.336ZM22.2835 19.728C21.1635 19.728 20.2835 19.456 19.6435 18.912C19.0355 18.336 18.7315 17.552 18.7315 16.56C18.7315 15.536 19.0355 14.752 19.6435 14.208C20.2835 13.664 21.1635 13.392 22.2835 13.392C23.4355 13.392 24.3155 13.664 24.9235 14.208C25.5315 14.752 25.8355 15.536 25.8355 16.56C25.8355 17.552 25.5315 18.336 24.9235 18.912C24.3155 19.456 23.4355 19.728 22.2835 19.728ZM45.0779 48.48C43.0939 48.48 41.3499 47.984 39.8459 46.992C38.3739 46 37.3979 44.672 36.9179 43.008L37.4459 41.808V45.312C37.4459 46.304 37.1899 47.072 36.6779 47.616C36.1659 48.128 35.4459 48.384 34.5179 48.384C33.5579 48.384 32.8219 48.128 32.3099 47.616C31.7979 47.072 31.5419 46.304 31.5419 45.312V16.8C31.5419 15.808 31.7979 15.056 32.3099 14.544C32.8219 14.032 33.5579 13.776 34.5179 13.776C35.4779 13.776 36.2139 14.032 36.7259 14.544C37.2699 15.056 37.5419 15.808 37.5419 16.8V29.28H36.9659C37.4779 27.712 38.4699 26.448 39.9419 25.488C41.4139 24.528 43.1259 24.048 45.0779 24.048C47.1579 24.048 48.9659 24.544 50.5019 25.536C52.0379 26.528 53.2379 27.936 54.1019 29.76C54.9659 31.552 55.3979 33.712 55.3979 36.24C55.3979 38.736 54.9659 40.912 54.1019 42.768C53.2379 44.592 52.0219 46 50.4539 46.992C48.9179 47.984 47.1259 48.48 45.0779 48.48ZM43.3979 43.92C44.5819 43.92 45.6219 43.632 46.5179 43.056C47.4139 42.48 48.1019 41.632 48.5819 40.512C49.0939 39.36 49.3499 37.936 49.3499 36.24C49.3499 33.68 48.8059 31.776 47.7179 30.528C46.6299 29.248 45.1899 28.608 43.3979 28.608C42.2139 28.608 41.1739 28.896 40.2779 29.472C39.3819 30.016 38.6779 30.864 38.1659 32.016C37.6859 33.136 37.4459 34.544 37.4459 36.24C37.4459 38.768 37.9899 40.688 39.0779 42C40.1659 43.28 41.6059 43.92 43.3979 43.92ZM63.3951 48.384C62.4031 48.384 61.6351 48.128 61.0911 47.616C60.5791 47.072 60.3231 46.304 60.3231 45.312V27.168C60.3231 26.176 60.5791 25.424 61.0911 24.912C61.6031 24.4 62.3231 24.144 63.2511 24.144C64.1791 24.144 64.8991 24.4 65.4111 24.912C65.9231 25.424 66.1791 26.176 66.1791 27.168V30.192H65.6991C66.1471 28.272 67.0271 26.816 68.3391 25.824C69.6511 24.832 71.3951 24.24 73.5711 24.048C74.2431 23.984 74.7711 24.16 75.1551 24.576C75.5711 24.96 75.8111 25.568 75.8751 26.4C75.9391 27.2 75.7471 27.856 75.2991 28.368C74.8831 28.848 74.2431 29.136 73.3791 29.232L72.3231 29.328C70.3711 29.52 68.8991 30.128 67.9071 31.152C66.9151 32.144 66.4191 33.552 66.4191 35.376V45.312C66.4191 46.304 66.1631 47.072 65.6511 47.616C65.1391 48.128 64.3871 48.384 63.3951 48.384Z" fill="black"/>
<rect x="80" y="15" width="9" height="34" rx="4.5" fill="#F14A4A"/>
<rect x="102.435" y="15.9824" width="9" height="34" rx="4.5" transform="rotate(16.1104 102.435 15.9824)" fill="#529BE9"/>
</svg>
